<svg width="167" height="34" viewBox="0 0 167 34" fill="none" xmlns="http://www.w3.org/2000/svg">
<g clip-path="url(#clip0_2156_2683)">
<path d="M15.7294 15.1678C17.619 15.1684 19.4902 14.8017 21.2361 14.0887C22.982 13.3757 24.5685 12.3302 25.9049 11.0121C27.2413 9.69403 28.3014 8.12907 29.0246 6.40662C29.7479 4.68421 30.1202 2.83804 30.1202 0.973633H15.7294V15.1678Z" fill="#7557D3"/>
<path d="M0 16.4883C-1.06606e-07 18.3527 0.372276 20.1989 1.09554 21.9213C1.8188 23.6437 2.87885 25.2087 4.21523 26.5268C5.5516 27.8449 7.13806 28.8903 8.884 29.6034C10.6299 30.3164 12.5012 30.6831 14.3908 30.6825V16.4883H0Z" fill="#7557D3"/>
<path d="M15.7294 16.4883V30.6825H30.1202C30.1202 28.8181 29.7479 26.9719 29.0246 25.2495C28.3014 23.5271 27.2413 21.9621 25.9049 20.644C24.5685 19.3259 22.982 18.2804 21.2361 17.5674C19.4902 16.8544 17.619 16.4877 15.7294 16.4883Z" fill="#7557D3"/>
<path d="M0 15.1678H14.3908V0.973634C12.5012 0.97301 10.6299 1.33969 8.884 2.05274C7.13806 2.76578 5.5516 3.8112 4.21523 5.12931C2.87885 6.44742 1.8188 8.01241 1.09554 9.73486C0.372276 11.4573 -1.06606e-07 13.3034 0 15.1678Z" fill="#7557D3"/>
<path d="M31.459 0.973633C31.459 4.73815 32.9752 8.34852 35.6738 11.0105C38.3729 13.6724 42.0332 15.1678 45.8498 15.1678V0.973633H31.459Z" fill="#7557D3"/>
<path d="M31.459 30.6825H45.8498V16.4883C42.0332 16.4883 38.3729 17.9838 35.6738 20.6457C32.9752 23.3076 31.459 26.9179 31.459 30.6825Z" fill="#7557D3"/>
<path d="M166.874 18.3086L160.195 33.983H157.293L159.63 28.6814L155.306 18.3086H158.364L161.149 25.7424L163.973 18.3086H166.874Z" fill="black"/>
<path d="M152.566 20.5174V25.6653C152.566 26.0239 152.651 26.2864 152.819 26.4529C153.001 26.6066 153.3 26.6834 153.715 26.6834H154.981V28.9501H153.267C150.969 28.9501 149.82 27.8488 149.82 25.6462V20.5174H148.535V18.3084H149.82V15.6768H152.566V18.3084H154.981V20.5174H152.566Z" fill="black"/>
<path d="M145.743 17.0408C145.263 17.0408 144.86 16.8936 144.535 16.599C144.224 16.2917 144.068 15.9139 144.068 15.4657C144.068 15.0175 144.224 14.6462 144.535 14.3516C144.86 14.0443 145.263 13.8906 145.743 13.8906C146.223 13.8906 146.619 14.0443 146.931 14.3516C147.256 14.6462 147.417 15.0175 147.417 15.4657C147.417 15.9139 147.256 16.2917 146.931 16.599C146.619 16.8936 146.223 17.0408 145.743 17.0408ZM147.086 18.3086V28.9503H144.36V18.3086H147.086Z" fill="black"/>
<path d="M137.854 18.1553C139.139 18.1553 140.178 18.5587 140.969 19.3654C141.762 20.1594 142.157 21.2735 142.157 22.7077V28.9506H139.431V23.0727C139.431 22.2275 139.217 21.5809 138.788 21.1326C138.36 20.6716 137.776 20.4411 137.036 20.4411C136.283 20.4411 135.685 20.6716 135.244 21.1326C134.815 21.5809 134.601 22.2275 134.601 23.0727V28.9506H131.875V18.3089H134.601V19.6343C134.965 19.1733 135.426 18.8148 135.984 18.5587C136.555 18.2897 137.178 18.1553 137.854 18.1553Z" fill="black"/>
<path d="M129.575 18.3086V28.9503H126.829V27.6057C126.479 28.0667 126.018 28.4316 125.447 28.7006C124.889 28.9567 124.278 29.0847 123.616 29.0847C122.772 29.0847 122.026 28.9119 121.377 28.5661C120.727 28.2075 120.215 27.6889 119.838 27.0102C119.474 26.3187 119.293 25.4991 119.293 24.5515V18.3086H122.019V24.1673C122.019 25.0125 122.233 25.6656 122.662 26.1266C123.09 26.5748 123.674 26.7989 124.415 26.7989C125.168 26.7989 125.758 26.5748 126.187 26.1266C126.615 25.6656 126.829 25.0125 126.829 24.1673V18.3086H129.575Z" fill="black"/>
<path d="M112.772 18.1553C114.096 18.1553 115.161 18.5587 115.966 19.3654C116.784 20.1594 117.193 21.2735 117.193 22.7077V28.9506H114.466V23.0727C114.466 22.2404 114.252 21.6064 113.824 21.171C113.395 20.7228 112.811 20.4987 112.071 20.4987C111.331 20.4987 110.74 20.7228 110.299 21.171C109.87 21.6064 109.656 22.2404 109.656 23.0727V28.9506H106.929V23.0727C106.929 22.2404 106.715 21.6064 106.287 21.171C105.858 20.7228 105.274 20.4987 104.534 20.4987C103.781 20.4987 103.184 20.7228 102.742 21.171C102.314 21.6064 102.1 22.2404 102.1 23.0727V28.9506H99.3733V18.3089H102.1V19.5959C102.45 19.1477 102.898 18.7956 103.444 18.5394C104.002 18.2833 104.612 18.1553 105.274 18.1553C106.118 18.1553 106.871 18.3345 107.533 18.6931C108.195 19.0389 108.708 19.5383 109.072 20.1914C109.422 19.5767 109.928 19.0837 110.591 18.7123C111.266 18.341 111.993 18.1553 112.772 18.1553Z" fill="black"/>
<path d="M92.752 18.1553C94.0763 18.1553 95.1408 18.5587 95.9457 19.3654C96.7636 20.1594 97.1726 21.2735 97.1726 22.7077V28.9506H94.4464V23.0727C94.4464 22.2404 94.2322 21.6064 93.8035 21.171C93.3751 20.7228 92.7908 20.4987 92.0508 20.4987C91.3109 20.4987 90.7202 20.7228 90.2788 21.171C89.8504 21.6064 89.6359 22.2404 89.6359 23.0727V28.9506H86.9096V23.0727C86.9096 22.2404 86.6955 21.6064 86.2667 21.171C85.8384 20.7228 85.254 20.4987 84.5141 20.4987C83.7611 20.4987 83.1637 20.7228 82.7223 21.171C82.2939 21.6064 82.0797 22.2404 82.0797 23.0727V28.9506H79.3531V18.3089H82.0797V19.5959C82.4304 19.1477 82.8782 18.7956 83.4234 18.5394C83.982 18.2833 84.5921 18.1553 85.254 18.1553C86.0981 18.1553 86.8511 18.3345 87.5134 18.6931C88.1754 19.0389 88.6881 19.5383 89.0519 20.1914C89.4023 19.5767 89.9086 19.0837 90.5709 18.7123C91.246 18.341 91.9729 18.1553 92.752 18.1553Z" fill="black"/>
<path d="M72.1156 29.1242C71.0768 29.1242 70.142 28.9001 69.3111 28.4519C68.4801 27.9908 67.8244 27.3441 67.3442 26.5117C66.8767 25.6794 66.6431 24.7189 66.6431 23.6304C66.6431 22.5419 66.8834 21.5815 67.3636 20.7491C67.8569 19.9167 68.5256 19.2764 69.3696 18.8282C70.2133 18.3672 71.1547 18.1367 72.1932 18.1367C73.232 18.1367 74.1735 18.3672 75.0172 18.8282C75.8612 19.2764 76.5232 19.9167 77.0038 20.7491C77.4971 21.5815 77.7437 22.5419 77.7437 23.6304C77.7437 24.7189 77.4904 25.6794 76.984 26.5117C76.4907 27.3441 75.8157 27.9908 74.9589 28.4519C74.1149 28.9001 73.1671 29.1242 72.1156 29.1242ZM72.1156 26.7807C72.6089 26.7807 73.0697 26.6654 73.4981 26.4349C73.9395 26.1916 74.2903 25.833 74.55 25.3592C74.8093 24.8854 74.9392 24.3091 74.9392 23.6304C74.9392 22.6188 74.6668 21.844 74.1213 21.3062C73.5891 20.7555 72.9335 20.4802 72.1544 20.4802C71.3753 20.4802 70.7197 20.7555 70.1876 21.3062C69.6681 21.844 69.4084 22.6188 69.4084 23.6304C69.4084 24.6421 69.6618 25.4232 70.1678 25.9739C70.6872 26.5117 71.3365 26.7807 72.1156 26.7807Z" fill="black"/>
<path d="M52.104 22.2267C52.104 20.9077 52.4025 19.7295 52.9996 18.6923C53.61 17.6422 54.4343 16.829 55.4731 16.2527C56.5247 15.6637 57.6997 15.3691 58.9979 15.3691C60.5169 15.3691 61.8479 15.7533 62.9901 16.5217C64.1327 17.29 64.9312 18.3529 65.3857 19.7103H62.2502C61.9386 19.07 61.4972 18.5898 60.9259 18.2697C60.3677 17.9495 59.7184 17.7894 58.9784 17.7894C58.1866 17.7894 57.4788 17.9751 56.8556 18.3465C56.2455 18.7051 55.765 19.2173 55.4146 19.8832C55.0769 20.5491 54.9082 21.3303 54.9082 22.2267C54.9082 23.1103 55.0769 23.8915 55.4146 24.5702C55.765 25.2361 56.2455 25.7547 56.8556 26.1261C57.4788 26.4846 58.1866 26.6639 58.9784 26.6639C59.7184 26.6639 60.3677 26.5038 60.9259 26.1837C61.4972 25.8507 61.9386 25.3641 62.2502 24.7238H65.3857C64.9312 26.0941 64.1327 27.1633 62.9901 27.9317C61.8606 28.6872 60.53 29.065 58.9979 29.065C57.6997 29.065 56.5247 28.7769 55.4731 28.2006C54.4343 27.6115 53.61 26.7984 52.9996 25.7611C52.4025 24.7238 52.104 23.5457 52.104 22.2267Z" fill="black"/>
<path d="M105.897 8.22483C105.897 7.14914 106.112 6.1951 106.54 5.36272C106.981 4.53035 107.572 3.89003 108.312 3.44182C109.065 2.99363 109.903 2.76953 110.824 2.76953C111.63 2.76953 112.33 2.92961 112.928 3.24975C113.538 3.5699 114.025 3.97328 114.388 4.45991V2.94241H117.134V13.5841H114.388V12.0282C114.038 12.5276 113.551 12.9438 112.928 13.2767C112.318 13.5969 111.61 13.757 110.805 13.757C109.896 13.757 109.065 13.5265 108.312 13.0654C107.572 12.6044 106.981 11.9577 106.54 11.1254C106.112 10.2802 105.897 9.31333 105.897 8.22483ZM114.388 8.26325C114.388 7.61016 114.259 7.05309 113.999 6.59207C113.739 6.11825 113.389 5.7597 112.947 5.51638C112.506 5.26026 112.032 5.13222 111.526 5.13222C111.019 5.13222 110.552 5.25386 110.123 5.49717C109.695 5.74049 109.345 6.09907 109.072 6.57286C108.812 7.03387 108.682 7.58454 108.682 8.22483C108.682 8.86512 108.812 9.4286 109.072 9.91519C109.345 10.389 109.695 10.754 110.123 11.0101C110.565 11.2662 111.032 11.3943 111.526 11.3943C112.032 11.3943 112.506 11.2726 112.947 11.0293C113.389 10.7732 113.739 10.4146 113.999 9.95362C114.259 9.47979 114.388 8.91635 114.388 8.26325Z" fill="black"/>
<path d="M102.614 5.15018V10.2981C102.614 10.6567 102.698 10.9192 102.867 11.0857C103.049 11.2394 103.347 11.3162 103.763 11.3162H105.029V13.5828H103.315C101.017 13.5828 99.8677 12.4815 99.8677 10.2789V5.15018H98.5823V2.94118H99.8677V0.30957H102.614V2.94118H105.029V5.15018H102.614Z" fill="black"/>
<path d="M85.9291 8.22483C85.9291 7.14914 86.1433 6.1951 86.5716 5.36272C87.0131 4.53035 87.6038 3.89003 88.3441 3.44182C89.0971 2.99363 89.9344 2.76953 90.8561 2.76953C91.661 2.76953 92.3621 2.92961 92.9595 3.24975C93.5696 3.5699 94.0565 3.97328 94.42 4.45991V2.94241H97.1659V13.5841H94.42V12.0282C94.0696 12.5276 93.5826 12.9438 92.9595 13.2767C92.3494 13.5969 91.6415 13.757 90.8367 13.757C89.9277 13.757 89.0971 13.5265 88.3441 13.0654C87.6038 12.6044 87.0131 11.9577 86.5716 11.1254C86.1433 10.2802 85.9291 9.31333 85.9291 8.22483ZM94.42 8.26325C94.42 7.61016 94.2901 7.05309 94.0304 6.59207C93.771 6.11825 93.4203 5.7597 92.9789 5.51638C92.5375 5.26026 92.0636 5.13222 91.5572 5.13222C91.0509 5.13222 90.5837 5.25386 90.155 5.49717C89.7266 5.74049 89.3762 6.09907 89.1034 6.57286C88.8437 7.03387 88.7139 7.58454 88.7139 8.22483C88.7139 8.86512 88.8437 9.4286 89.1034 9.91519C89.3762 10.389 89.7266 10.754 90.155 11.0101C90.5964 11.2662 91.0639 11.3943 91.5572 11.3943C92.0636 11.3943 92.5375 11.2726 92.9789 11.0293C93.4203 10.7732 93.771 10.4146 94.0304 9.95362C94.2901 9.47979 94.42 8.91635 94.42 8.26325Z" fill="black"/>
<path d="M85.5508 2.94141L78.8712 18.6158H75.9693L78.3063 13.3142L73.9827 2.94141H77.0405L79.8253 10.3752L82.6493 2.94141H85.5508Z" fill="black"/>
<path d="M68.7213 2.78711C70.0068 2.78711 71.0453 3.19049 71.8374 3.99726C72.6293 4.79124 73.0255 5.90536 73.0255 7.33959V13.5825H70.299V7.70455C70.299 6.85937 70.0848 6.21268 69.6564 5.76447C69.2277 5.30346 68.6437 5.07295 67.9034 5.07295C67.1504 5.07295 66.5533 5.30346 66.1119 5.76447C65.6832 6.21268 65.469 6.85937 65.469 7.70455V13.5825H62.7428V2.94078H65.469V4.26619C65.8328 3.80518 66.2936 3.44663 66.8519 3.19049C67.4231 2.92157 68.0463 2.78711 68.7213 2.78711Z" fill="black"/>
<path d="M55.4939 2.34703V5.70857H60.0705V7.84076H55.4939V11.3944H60.6545V13.5842H52.7673V0.157227H60.6545V2.34703H55.4939Z" fill="black"/>
</g>
<defs>
<clipPath id="clip0_2156_2683">
<rect width="167" height="34" fill="white"/>
</clipPath>
</defs>
</svg>
